<svg xmlns="http://www.w3.org/2000/svg" width="1120" height="640" viewBox="0 0 1120 640" role="img" aria-labelledby="title desc">
<title id="title">OpenLeaf Reference SaaS</title>
<desc id="desc">Gateway governance, evented services, payments, observability, and reliability testing</desc>
<rect width="1120" height="640" fill="#081018"/>
<circle cx="940" cy="80" r="220" fill="#0d9488" opacity="0.10"/>
<circle cx="160" cy="560" r="180" fill="#f59e0b" opacity="0.08"/>
<text x="64" y="76" fill="#f8fafc" font-family="Inter, Arial" font-size="34" font-weight="800">OpenLeaf Reference SaaS</text>
<text x="64" y="112" fill="#94a3b8" font-family="Inter, Arial" font-size="16">Gateway governance, evented services, payments, observability, and reliability testing</text>
<g><path d="M300 179 C370 179, 310 179, 380 179" fill="none" stroke="#334155" stroke-width="2" stroke-dasharray="6 8"/><path d="M560 179 C630 179, 570 179, 640 179" fill="none" stroke="#334155" stroke-width="2" stroke-dasharray="6 8"/><path d="M820 179 C890 179, 830 179, 900 179" fill="none" stroke="#334155" stroke-width="2" stroke-dasharray="6 8"/><path d="M300 339 C370 339, 310 339, 380 339" fill="none" stroke="#334155" stroke-width="2" stroke-dasharray="6 8"/><path d="M560 339 C630 339, 570 339, 640 339" fill="none" stroke="#334155" stroke-width="2" stroke-dasharray="6 8"/><path d="M820 339 C890 339, 830 339, 900 339" fill="none" stroke="#334155" stroke-width="2" stroke-dasharray="6 8"/><rect x="120" y="140" width="180" height="78" rx="18" fill="#0f172a" stroke="#5eead4" stroke-opacity="0.55"/><text x="138" y="174" fill="#e2e8f0" font-family="Inter, Arial" font-size="17" font-weight="700">Frontend</text><text x="138" y="198" fill="#94a3b8" font-family="Inter, Arial" font-size="12">Reader app</text><rect x="380" y="140" width="180" height="78" rx="18" fill="#0f172a" stroke="#fbbf24" stroke-opacity="0.55"/><text x="398" y="174" fill="#e2e8f0" font-family="Inter, Arial" font-size="17" font-weight="700">Kong</text><text x="398" y="198" fill="#94a3b8" font-family="Inter, Arial" font-size="12">API gateway</text><rect x="640" y="140" width="180" height="78" rx="18" fill="#0f172a" stroke="#5eead4" stroke-opacity="0.55"/><text x="658" y="174" fill="#e2e8f0" font-family="Inter, Arial" font-size="17" font-weight="700">Services</text><text x="658" y="198" fill="#94a3b8" font-family="Inter, Arial" font-size="12">Python APIs</text><rect x="900" y="140" width="180" height="78" rx="18" fill="#0f172a" stroke="#fbbf24" stroke-opacity="0.55"/><text x="918" y="174" fill="#e2e8f0" font-family="Inter, Arial" font-size="17" font-weight="700">RabbitMQ</text><text x="918" y="198" fill="#94a3b8" font-family="Inter, Arial" font-size="12">Events</text><rect x="120" y="300" width="180" height="78" rx="18" fill="#0f172a" stroke="#fbbf24" stroke-opacity="0.55"/><text x="138" y="334" fill="#e2e8f0" font-family="Inter, Arial" font-size="17" font-weight="700">MongoDB</text><text x="138" y="358" fill="#94a3b8" font-family="Inter, Arial" font-size="12">Content state</text><rect x="380" y="300" width="180" height="78" rx="18" fill="#0f172a" stroke="#5eead4" stroke-opacity="0.55"/><text x="398" y="334" fill="#e2e8f0" font-family="Inter, Arial" font-size="17" font-weight="700">Stripe</text><text x="398" y="358" fill="#94a3b8" font-family="Inter, Arial" font-size="12">Payments</text><rect x="640" y="300" width="180" height="78" rx="18" fill="#0f172a" stroke="#5eead4" stroke-opacity="0.55"/><text x="658" y="334" fill="#e2e8f0" font-family="Inter, Arial" font-size="17" font-weight="700">Argo CD</text><text x="658" y="358" fill="#94a3b8" font-family="Inter, Arial" font-size="12">Delivery</text><rect x="900" y="300" width="180" height="78" rx="18" fill="#0f172a" stroke="#fbbf24" stroke-opacity="0.55"/><text x="918" y="334" fill="#e2e8f0" font-family="Inter, Arial" font-size="17" font-weight="700">Prometheus</text><text x="918" y="358" fill="#94a3b8" font-family="Inter, Arial" font-size="12">Telemetry</text><rect x="120" y="460" width="180" height="78" rx="18" fill="#0f172a" stroke="#5eead4" stroke-opacity="0.55"/><text x="138" y="494" fill="#e2e8f0" font-family="Inter, Arial" font-size="17" font-weight="700">Chaos Mesh</text><text x="138" y="518" fill="#94a3b8" font-family="Inter, Arial" font-size="12">Reliability</text></g>
<text x="64" y="594" fill="#64748b" font-family="Inter, Arial" font-size="13">temitayocharles.online · downloadable architecture artifact</text>

  <!-- Color legend: teal = data/network paths · amber = control/security paths -->
  <g transform="translate(760, 605)">
    <line x1="0" y1="7" x2="18" y2="7" stroke="#5eead4" stroke-width="1.5"/>
    <text x="23" y="11" font-family="monospace" font-size="11" fill="#64748b">data / network</text>
    <line x1="130" y1="7" x2="148" y2="7" stroke="#fbbf24" stroke-width="1.5"/>
    <text x="153" y="11" font-family="monospace" font-size="11" fill="#64748b">control / security</text>
    <line x1="280" y1="7" x2="298" y2="7" stroke="#334155" stroke-width="1.5" stroke-dasharray="4 2"/>
    <text x="303" y="11" font-family="monospace" font-size="11" fill="#64748b">structural</text>
  </g>
</svg>
