<svg xmlns="http://www.w3.org/2000/svg" width="1120" height="640" viewBox="0 0 1120 640" role="img" aria-labelledby="title desc">
<title id="title">Vault Ops Secret Control Plane</title>
<desc id="desc">Vault authority, External Secrets sync, validation, rollout safety, and recovery</desc>
<rect width="1120" height="640" fill="#081018"/>
<circle cx="940" cy="80" r="220" fill="#0d9488" opacity="0.10"/>
<circle cx="160" cy="560" r="180" fill="#f59e0b" opacity="0.08"/>
<text x="64" y="76" fill="#f8fafc" font-family="Inter, Arial" font-size="34" font-weight="800">Vault Ops Secret Control Plane</text>
<text x="64" y="112" fill="#94a3b8" font-family="Inter, Arial" font-size="16">Vault authority, External Secrets sync, validation, rollout safety, and recovery</text>
<g><path d="M300 179 C370 179, 310 179, 380 179" fill="none" stroke="#334155" stroke-width="2" stroke-dasharray="6 8"/><path d="M560 179 C630 179, 570 179, 640 179" fill="none" stroke="#334155" stroke-width="2" stroke-dasharray="6 8"/><path d="M820 179 C890 179, 830 179, 900 179" fill="none" stroke="#334155" stroke-width="2" stroke-dasharray="6 8"/><path d="M1080 179 C1150 179, 50 339, 120 339" fill="none" stroke="#334155" stroke-width="2" stroke-dasharray="6 8"/><path d="M300 339 C370 339, 310 339, 380 339" fill="none" stroke="#334155" stroke-width="2" stroke-dasharray="6 8"/><path d="M560 339 C630 339, 570 339, 640 339" fill="none" stroke="#334155" stroke-width="2" stroke-dasharray="6 8"/><path d="M820 339 C890 339, 830 339, 900 339" fill="none" stroke="#334155" stroke-width="2" stroke-dasharray="6 8"/><rect x="120" y="140" width="180" height="78" rx="18" fill="#0f172a" stroke="#5eead4" stroke-opacity="0.55"/><text x="138" y="174" fill="#e2e8f0" font-family="Inter, Arial" font-size="17" font-weight="700">Vault</text><text x="138" y="198" fill="#94a3b8" font-family="Inter, Arial" font-size="12">Authority</text><rect x="380" y="140" width="180" height="78" rx="18" fill="#0f172a" stroke="#fbbf24" stroke-opacity="0.55"/><text x="398" y="174" fill="#e2e8f0" font-family="Inter, Arial" font-size="17" font-weight="700">Policies</text><text x="398" y="198" fill="#94a3b8" font-family="Inter, Arial" font-size="12">Least privilege</text><rect x="640" y="140" width="180" height="78" rx="18" fill="#0f172a" stroke="#93c5fd" stroke-opacity="0.55"/><text x="658" y="174" fill="#e2e8f0" font-family="Inter, Arial" font-size="17" font-weight="700">External Secrets</text><text x="658" y="198" fill="#94a3b8" font-family="Inter, Arial" font-size="12">K8s sync</text><rect x="900" y="140" width="180" height="78" rx="18" fill="#0f172a" stroke="#c4b5fd" stroke-opacity="0.55"/><text x="918" y="174" fill="#e2e8f0" font-family="Inter, Arial" font-size="17" font-weight="700">Validation</text><text x="918" y="198" fill="#94a3b8" font-family="Inter, Arial" font-size="12">Shape checks</text><rect x="120" y="300" width="180" height="78" rx="18" fill="#0f172a" stroke="#fca5a5" stroke-opacity="0.55"/><text x="138" y="334" fill="#e2e8f0" font-family="Inter, Arial" font-size="17" font-weight="700">Workloads</text><text x="138" y="358" fill="#94a3b8" font-family="Inter, Arial" font-size="12">Consumers</text><rect x="380" y="300" width="180" height="78" rx="18" fill="#0f172a" stroke="#86efac" stroke-opacity="0.55"/><text x="398" y="334" fill="#e2e8f0" font-family="Inter, Arial" font-size="17" font-weight="700">Rotation</text><text x="398" y="358" fill="#94a3b8" font-family="Inter, Arial" font-size="12">Controlled change</text><rect x="640" y="300" width="180" height="78" rx="18" fill="#0f172a" stroke="#5eead4" stroke-opacity="0.55"/><text x="658" y="334" fill="#e2e8f0" font-family="Inter, Arial" font-size="17" font-weight="700">Runbooks</text><text x="658" y="358" fill="#94a3b8" font-family="Inter, Arial" font-size="12">Recovery path</text><rect x="900" y="300" width="180" height="78" rx="18" fill="#0f172a" stroke="#fbbf24" stroke-opacity="0.55"/><text x="918" y="334" fill="#e2e8f0" font-family="Inter, Arial" font-size="17" font-weight="700">Audit</text><text x="918" y="358" fill="#94a3b8" font-family="Inter, Arial" font-size="12">Evidence</text></g>
<text x="64" y="594" fill="#64748b" font-family="Inter, Arial" font-size="13">temitayocharles.online · downloadable architecture artifact</text>
</svg>
