<svg xmlns="http://www.w3.org/2000/svg" width="1440" height="860" viewBox="0 0 1440 860" role="img" aria-labelledby="title desc">
<title id="title">InfraForge Brand Systems Loop</title>
<desc id="desc">A premium dark diagram showing InfraForge Platform, AI Inference Lab, ForgeWatch, Project Iris, Jerry, and education products as connected problem-solving systems.</desc>
<rect width="1440" height="860" fill="#080d12"/>
<rect x="72" y="70" width="1296" height="720" rx="42" fill="#0a0f14" stroke="#263241"/>
<text x="116" y="135" fill="#f8fafc" font-family="Inter, Arial" font-size="44" font-weight="800">InfraForge systems loop</text>
<text x="118" y="172" fill="#94a3b8" font-family="Inter, Arial" font-size="18">Governed AI systems and the infrastructure they need to operate reliably.</text>
<g font-family="Inter, Arial">
  <rect x="536" y="344" width="368" height="132" rx="28" fill="#101419" stroke="#f59e0b" stroke-width="2"/>
  <text x="578" y="395" fill="#f8fafc" font-size="25" font-weight="800">InfraForge Platform</text>
  <text x="578" y="428" fill="#cbd5e1" font-size="15">Kubernetes · GitOps · Vault · Observability</text>
  <text x="578" y="456" fill="#fbbf24" font-size="13">Secure runtime foundation</text>

  <rect x="168" y="166" width="300" height="118" rx="26" fill="#111827" stroke="#14b8a6"/>
  <text x="202" y="212" fill="#f8fafc" font-size="22" font-weight="800">AI Inference Lab</text>
  <text x="202" y="244" fill="#94a3b8" font-size="14">Model operations · LLM serving</text>
  <text x="202" y="268" fill="#2dd4bf" font-size="12">Models become measurable systems</text>

  <rect x="972" y="166" width="300" height="118" rx="26" fill="#111827" stroke="#f59e0b"/>
  <text x="1006" y="212" fill="#f8fafc" font-size="22" font-weight="800">ForgeWatch</text>
  <text x="1006" y="244" fill="#94a3b8" font-size="14">Metrics · KeepHQ · incidents</text>
  <text x="1006" y="268" fill="#fbbf24" font-size="12">Operational signals become clarity</text>

  <rect x="168" y="574" width="300" height="118" rx="26" fill="#111827" stroke="#f59e0b"/>
  <text x="202" y="620" fill="#f8fafc" font-size="22" font-weight="800">Project Iris</text>
  <text x="202" y="652" fill="#94a3b8" font-size="14">Personal AI · memory · approvals</text>
  <text x="202" y="676" fill="#fbbf24" font-size="12">Digital work becomes governed</text>

  <rect x="972" y="574" width="300" height="118" rx="26" fill="#111827" stroke="#14b8a6"/>
  <text x="1006" y="620" fill="#f8fafc" font-size="22" font-weight="800">Jerry</text>
  <text x="1006" y="652" fill="#94a3b8" font-size="14">Mobile AI · commands · status</text>
  <text x="1006" y="676" fill="#2dd4bf" font-size="12">AI interaction becomes accessible</text>

  <rect x="570" y="618" width="300" height="94" rx="24" fill="#111827" stroke="#374151"/>
  <text x="606" y="656" fill="#f8fafc" font-size="20" font-weight="800">Education products</text>
  <text x="606" y="685" fill="#94a3b8" font-size="13">Young Coders · AI Builders Academy</text>

  <path d="M468 225C560 252 618 290 672 344" stroke="#475569" stroke-width="2" fill="none" stroke-dasharray="7 10"/>
  <path d="M972 225C880 252 822 290 768 344" stroke="#475569" stroke-width="2" fill="none" stroke-dasharray="7 10"/>
  <path d="M468 633C554 596 618 536 672 476" stroke="#475569" stroke-width="2" fill="none" stroke-dasharray="7 10"/>
  <path d="M972 633C886 596 822 536 768 476" stroke="#475569" stroke-width="2" fill="none" stroke-dasharray="7 10"/>
  <path d="M720 618V476" stroke="#475569" stroke-width="2" fill="none" stroke-dasharray="7 10"/>

  <circle cx="720" cy="410" r="10" fill="#fbbf24"/>
  <circle cx="720" cy="410" r="22" fill="none" stroke="#fbbf24" opacity="0.28"/>
</g>
<text x="116" y="760" fill="#64748b" font-family="Inter, Arial" font-size="14">temitayocharles.online · InfraForge brand systems proof asset</text>
</svg>
