<svg xmlns="http://www.w3.org/2000/svg" width="1440" height="860" viewBox="0 0 1440 860" role="img" aria-labelledby="title desc">
<title id="title">Project Iris Personal AI Assistant Surface</title>
<desc id="desc">A premium product mockup for Project Iris showing personal AI memory, approvals, email, calendar, browser workflow, audit, and long-running tasks.</desc>
<rect width="1440" height="860" fill="#080d12"/>
<rect x="82" y="70" width="1276" height="720" rx="42" fill="#0a0f14" stroke="#263241"/>
<text x="126" y="136" fill="#f8fafc" font-family="Inter, Arial" font-size="42" font-weight="800">Project Iris</text>
<text x="128" y="172" fill="#94a3b8" font-family="Inter, Arial" font-size="18">Governed personal AI assistant for everyday digital work.</text>
<g font-family="Inter, Arial">
  <rect x="128" y="224" width="300" height="500" rx="30" fill="#101419" stroke="#334155"/>
  <text x="166" y="278" fill="#fbbf24" font-size="14" font-weight="700">TODAY</text>
  <text x="166" y="318" fill="#f8fafc" font-size="25" font-weight="800">Daily command</text>
  <text x="166" y="358" fill="#94a3b8" font-size="14">Email follow-ups</text>
  <text x="166" y="395" fill="#94a3b8" font-size="14">Calendar conflicts</text>
  <text x="166" y="432" fill="#94a3b8" font-size="14">Research queue</text>
  <text x="166" y="469" fill="#94a3b8" font-size="14">Long-running tasks</text>
  <rect x="166" y="560" width="222" height="74" rx="18" fill="#111827" stroke="#f59e0b"/>
  <text x="190" y="604" fill="#f8fafc" font-size="16" font-weight="700">Approval required</text>

  <rect x="486" y="224" width="466" height="500" rx="30" fill="#101419" stroke="#334155"/>
  <text x="526" y="278" fill="#f8fafc" font-size="26" font-weight="800">Personal operator workspace</text>
  <rect x="526" y="326" width="386" height="74" rx="18" fill="#111827" stroke="#f59e0b"/>
  <text x="552" y="370" fill="#f8fafc" font-size="16" font-weight="700">Memory and work context</text>
  <rect x="526" y="424" width="386" height="74" rx="18" fill="#111827" stroke="#14b8a6"/>
  <text x="552" y="468" fill="#f8fafc" font-size="16" font-weight="700">Email · Calendar · Browser tools</text>
  <rect x="526" y="522" width="386" height="74" rx="18" fill="#111827" stroke="#f59e0b"/>
  <text x="552" y="566" fill="#f8fafc" font-size="16" font-weight="700">Audit and long-running tasks</text>

  <rect x="1010" y="224" width="300" height="500" rx="30" fill="#101419" stroke="#334155"/>
  <text x="1048" y="278" fill="#2dd4bf" font-size="14" font-weight="700">CONTROL</text>
  <text x="1048" y="318" fill="#f8fafc" font-size="25" font-weight="800">User authority</text>
  <text x="1048" y="358" fill="#94a3b8" font-size="14">Provider boundaries</text>
  <text x="1048" y="395" fill="#94a3b8" font-size="14">MCP contracts</text>
  <text x="1048" y="432" fill="#94a3b8" font-size="14">Action review</text>
  <text x="1048" y="469" fill="#94a3b8" font-size="14">Traceable execution</text>
  <rect x="1048" y="560" width="222" height="74" rx="18" fill="#111827" stroke="#14b8a6"/>
  <text x="1072" y="604" fill="#f8fafc" font-size="16" font-weight="700">Always governed</text>
</g>
<text x="126" y="760" fill="#64748b" font-family="Inter, Arial" font-size="14">temitayocharles.online · Project Iris product-surface proof asset</text>
</svg>
